<?xml version="1.0" standalone="no"?>
<!DOCTYPE svg PUBLIC "-//W3C//DTD SVG 20010904//EN"
 "http://www.w3.org/TR/2001/REC-SVG-20010904/DTD/svg10.dtd">
<svg version="1.0" xmlns="http://www.w3.org/2000/svg"
 width="100%" height="100%" viewBox="0 0 512.000000 512.000000"
 preserveAspectRatio="xMidYMid meet">

<g transform="translate(0.000000,512.000000) scale(0.100000,-0.100000)"
fill="#fff" stroke="none">
<path d="M569 4487 c-56 -31 -369 -259 -388 -283 -26 -34 -37 -89 -24 -134 11
-44 1465 -2093 1502 -2116 36 -24 112 -30 149 -11 17 8 278 191 582 407 533
378 553 392 570 374 9 -11 205 -284 435 -609 230 -324 433 -611 451 -636 l34
-46 -168 -48 c-262 -74 -287 -91 -287 -205 0 -71 17 -104 66 -134 15 -9 303
-101 640 -206 674 -210 664 -208 730 -152 58 48 58 48 79 644 26 734 26 766
-2 808 -47 69 -152 90 -221 46 -15 -10 -78 -90 -139 -177 -62 -88 -114 -155
-117 -151 -3 5 -291 409 -638 898 -391 549 -643 896 -660 905 -43 25 -90 30
-131 16 -20 -8 -288 -192 -596 -411 -307 -218 -560 -395 -561 -394 -1 2 -255
359 -564 795 -309 435 -574 799 -589 809 -35 23 -119 29 -153 11z"/>
</g>
</svg>
